<svg width="255" height="198" viewBox="0 0 255 198" fill="none" xmlns="http://www.w3.org/2000/svg">
<path d="M127.439 0V106.002L178.18 56.533L211.157 24.382L254.877 67.0062V0H127.439Z" fill="#19733E"/>
<path d="M145.964 173.189H254.877V67.0062L221.9 99.1571L145.964 173.189Z" fill="#19733E"/>
<path d="M127.439 106.002V0H0V173.189H84.1147L94.4457 138.168L127.439 106.002ZM72.7302 81.4728C86.1954 85.6198 93.6111 95.4901 93.6111 109.266C93.6111 122.731 84.193 134.089 71.4429 137.417V143.732H55.9958V137.417C43.2458 134.089 33.8271 122.732 33.8271 109.266H49.2743C49.2743 114.263 51.96 118.657 55.9958 121.157V92.1126L54.708 91.716C41.2428 87.569 33.8271 77.6987 33.8271 63.9229C33.8271 50.4573 43.2458 39.1001 55.9958 35.7719V29.4572H71.4429V35.7719C84.193 39.1001 93.6111 50.4568 93.6111 63.9229H78.164C78.164 58.926 75.4787 54.5315 71.4429 52.0316V81.0762L72.7302 81.4728Z" fill="#29A85B"/>
<path d="M71.4429 121.158C75.4782 118.657 78.164 114.263 78.164 109.266C78.164 103.307 76.1121 99.5342 71.4429 97.1707V121.158Z" fill="#29A85B"/>
<path d="M49.2748 63.9229C49.2748 69.8831 51.3267 73.6556 55.9963 76.019V52.0316C51.9605 54.532 49.2748 58.926 49.2748 63.9229Z" fill="#29A85B"/>
<path d="M200.04 77.8453L178.18 56.533L94.4457 138.168L138.166 180.793L116.306 159.48L200.04 77.8453Z" fill="#1557B7"/>
<path d="M200.04 77.8453L116.306 159.48L138.166 180.793L145.964 173.189L221.9 99.1571L200.04 77.8453Z" fill="#1557B7" fill-opacity="0.88"/>
<path d="M76.7959 198L138.166 180.793L94.4457 138.168L76.7959 198Z" fill="#1557B7" fill-opacity="0.69"/>
<path d="M178.18 56.533L200.04 77.8453L233.017 45.6943L254.877 67.0061L211.158 24.382L178.18 56.533Z" fill="#1557B7" fill-opacity="0.88"/>
<path d="M200.041 77.8472L221.9 99.1592L254.878 67.0084L233.018 45.6965L200.041 77.8472Z" fill="#1557B7"/>
<path d="M78.164 63.9229H93.6111C93.6111 50.4573 84.193 39.1001 71.4429 35.7719V29.4572H55.9958V35.7719C43.2458 39.1001 33.8271 50.4568 33.8271 63.9229C33.8271 77.6987 41.2423 87.569 54.708 91.716L55.9958 92.1126V121.157C51.96 118.657 49.2743 114.263 49.2743 109.266H33.8271C33.8271 122.731 43.2458 134.089 55.9958 137.417V143.732H71.4429V137.417C84.193 134.089 93.6111 122.732 93.6111 109.266C93.6111 95.49 86.196 85.6198 72.7302 81.4728L71.4429 81.0762V52.0316C75.4787 54.532 78.164 58.926 78.164 63.9229ZM55.9958 76.019C51.3261 73.6556 49.2743 69.8831 49.2743 63.9229C49.2743 58.926 51.96 54.5315 55.9958 52.0316V76.019ZM78.164 109.266C78.164 114.263 75.4787 118.658 71.4429 121.158V109.164V97.1702C76.1126 99.5336 78.164 103.306 78.164 109.266Z" fill="#19733E"/>
</svg>
