<svg width="255" height="272" viewBox="0 0 255 272" fill="none" xmlns="http://www.w3.org/2000/svg">
<path d="M61.5988 225.384C62.1108 227.133 62.6654 229.117 63.2628 231.336C63.9028 233.512 64.5641 235.773 65.2468 238.12C65.9721 240.467 66.6974 242.813 67.4228 245.16C68.1481 247.507 68.8521 249.683 69.5348 251.688C70.0894 249.512 70.6441 247.144 71.1988 244.584C71.7961 242.024 72.3508 239.379 72.8628 236.648C73.3748 233.917 73.8654 231.208 74.3348 228.52C74.8468 225.789 75.3161 223.165 75.7428 220.648H86.1108C84.6174 228.072 82.8894 235.603 80.9268 243.24C79.0068 250.877 76.9161 258.131 74.6548 265H65.5028C64.0094 260.904 62.5588 256.616 61.1508 252.136C59.7428 247.613 58.3561 243.091 56.9908 238.568C55.6254 243.091 54.2601 247.613 52.8948 252.136C51.5294 256.616 50.1001 260.904 48.6068 265H39.4548C37.1934 258.131 35.0814 250.877 33.1188 243.24C31.1988 235.603 29.4921 228.072 27.9988 220.648H38.8148C39.2414 223.165 39.7108 225.789 40.2228 228.52C40.7348 231.208 41.2681 233.917 41.8228 236.648C42.3774 239.379 42.9321 242.024 43.4868 244.584C44.0841 247.144 44.6814 249.512 45.2788 251.688C46.0468 249.597 46.7934 247.379 47.5188 245.032C48.2441 242.685 48.9481 240.339 49.6308 237.992C50.3134 235.645 50.9321 233.384 51.4868 231.208C52.0841 229.032 52.6174 227.091 53.0868 225.384H61.5988ZM102.938 258.344C103.876 258.344 104.772 258.323 105.626 258.28C106.479 258.237 107.162 258.173 107.674 258.088V250.856C107.29 250.771 106.714 250.685 105.946 250.6C105.178 250.515 104.474 250.472 103.834 250.472C102.938 250.472 102.084 250.536 101.274 250.664C100.506 250.749 99.8231 250.941 99.2258 251.24C98.6284 251.539 98.1591 251.944 97.8178 252.456C97.4764 252.968 97.3058 253.608 97.3058 254.376C97.3058 255.869 97.7964 256.915 98.7778 257.512C99.8018 258.067 101.188 258.344 102.938 258.344ZM102.17 230.44C104.986 230.44 107.332 230.76 109.21 231.4C111.087 232.04 112.58 232.957 113.69 234.152C114.842 235.347 115.652 236.797 116.122 238.504C116.591 240.211 116.826 242.109 116.826 244.2V264.04C115.46 264.339 113.562 264.68 111.13 265.064C108.698 265.491 105.754 265.704 102.298 265.704C100.122 265.704 98.1378 265.512 96.3458 265.128C94.5964 264.744 93.0818 264.125 91.8018 263.272C90.5218 262.376 89.5404 261.224 88.8578 259.816C88.1751 258.408 87.8338 256.68 87.8338 254.632C87.8338 252.669 88.2178 251.005 88.9858 249.64C89.7964 248.275 90.8631 247.187 92.1858 246.376C93.5084 245.565 95.0231 244.989 96.7298 244.648C98.4364 244.264 100.207 244.072 102.042 244.072C103.279 244.072 104.367 244.136 105.306 244.264C106.287 244.349 107.076 244.477 107.674 244.648V243.752C107.674 242.131 107.183 240.829 106.202 239.848C105.22 238.867 103.514 238.376 101.082 238.376C99.4604 238.376 97.8604 238.504 96.2818 238.76C94.7031 238.973 93.3378 239.293 92.1858 239.72L90.9698 232.04C91.5244 231.869 92.2071 231.699 93.0178 231.528C93.8711 231.315 94.7884 231.144 95.7698 231.016C96.7511 230.845 97.7751 230.717 98.8418 230.632C99.9511 230.504 101.06 230.44 102.17 230.44ZM138.889 265.64C136.115 265.597 133.854 265.299 132.105 264.744C130.398 264.189 129.033 263.421 128.009 262.44C127.027 261.416 126.345 260.2 125.961 258.792C125.619 257.341 125.449 255.72 125.449 253.928V216.872L134.985 215.336V252.008C134.985 252.861 135.049 253.629 135.177 254.312C135.305 254.995 135.539 255.571 135.881 256.04C136.265 256.509 136.798 256.893 137.481 257.192C138.163 257.491 139.081 257.683 140.233 257.768L138.889 265.64ZM159.139 265.64C156.365 265.597 154.104 265.299 152.355 264.744C150.648 264.189 149.283 263.421 148.259 262.44C147.277 261.416 146.595 260.2 146.211 258.792C145.869 257.341 145.699 255.72 145.699 253.928V216.872L155.235 215.336V252.008C155.235 252.861 155.299 253.629 155.427 254.312C155.555 254.995 155.789 255.571 156.131 256.04C156.515 256.509 157.048 256.893 157.731 257.192C158.413 257.491 159.331 257.683 160.483 257.768L159.139 265.64ZM164.349 248.424C164.349 245.437 164.797 242.835 165.693 240.616C166.631 238.355 167.847 236.477 169.341 234.984C170.834 233.491 172.541 232.36 174.461 231.592C176.423 230.824 178.429 230.44 180.477 230.44C185.255 230.44 189.031 231.912 191.805 234.856C194.578 237.757 195.965 242.045 195.965 247.72C195.965 248.275 195.943 248.893 195.901 249.576C195.858 250.216 195.815 250.792 195.773 251.304H174.141C174.354 253.267 175.271 254.824 176.893 255.976C178.514 257.128 180.69 257.704 183.421 257.704C185.17 257.704 186.877 257.555 188.541 257.256C190.247 256.915 191.634 256.509 192.701 256.04L193.981 263.784C193.469 264.04 192.786 264.296 191.933 264.552C191.079 264.808 190.119 265.021 189.053 265.192C188.029 265.405 186.919 265.576 185.725 265.704C184.53 265.832 183.335 265.896 182.141 265.896C179.111 265.896 176.466 265.448 174.205 264.552C171.986 263.656 170.13 262.44 168.637 260.904C167.186 259.325 166.098 257.469 165.373 255.336C164.69 253.203 164.349 250.899 164.349 248.424ZM186.749 244.776C186.706 243.965 186.557 243.176 186.301 242.408C186.087 241.64 185.725 240.957 185.213 240.36C184.743 239.763 184.125 239.272 183.357 238.888C182.631 238.504 181.714 238.312 180.605 238.312C179.538 238.312 178.621 238.504 177.853 238.888C177.085 239.229 176.445 239.699 175.933 240.296C175.421 240.893 175.015 241.597 174.717 242.408C174.461 243.176 174.269 243.965 174.141 244.776H186.749ZM203.004 222.952L212.54 221.416V231.336H223.996V239.272H212.54V251.112C212.54 253.117 212.881 254.717 213.564 255.912C214.289 257.107 215.718 257.704 217.852 257.704C218.876 257.704 219.921 257.619 220.988 257.448C222.097 257.235 223.1 256.957 223.996 256.616L225.34 264.04C224.188 264.509 222.908 264.915 221.5 265.256C220.092 265.597 218.364 265.768 216.316 265.768C213.713 265.768 211.558 265.427 209.852 264.744C208.145 264.019 206.78 263.037 205.756 261.8C204.732 260.52 204.006 258.984 203.58 257.192C203.196 255.4 203.004 253.416 203.004 251.24V222.952Z" fill="#19733E"/>
<path d="M127.439 0V106.002L178.18 56.533L211.157 24.382L254.877 67.0062V0H127.439Z" fill="#19733E"/>
<path d="M145.964 173.189H254.877V67.0062L221.9 99.1571L145.964 173.189Z" fill="#19733E"/>
<path d="M127.439 106.002V0H0V173.189H84.1147L94.4457 138.168L127.439 106.002ZM72.7302 81.4728C86.1954 85.6198 93.6111 95.49 93.6111 109.266C93.6111 122.731 84.193 134.089 71.4429 137.417V143.732H55.9958V137.417C43.2458 134.089 33.8271 122.732 33.8271 109.266H49.2742C49.2742 114.263 51.96 118.657 55.9958 121.157V92.1126L54.708 91.716C41.2428 87.569 33.8271 77.6987 33.8271 63.9229C33.8271 50.4573 43.2458 39.1001 55.9958 35.7719V29.4572H71.4429V35.7719C84.193 39.1001 93.6111 50.4568 93.6111 63.9229H78.164C78.164 58.926 75.4787 54.5315 71.4429 52.0316V81.0762L72.7302 81.4728Z" fill="#29A85B"/>
<path d="M71.4429 121.158C75.4782 118.657 78.164 114.263 78.164 109.266C78.164 103.307 76.1121 99.5342 71.4429 97.1707V121.158Z" fill="#29A85B"/>
<path d="M49.2748 63.9229C49.2748 69.8831 51.3267 73.6556 55.9963 76.019V52.0316C51.9605 54.532 49.2748 58.926 49.2748 63.9229Z" fill="#29A85B"/>
<path d="M200.04 77.8453L178.18 56.533L94.4457 138.168L138.166 180.793L116.306 159.48L200.04 77.8453Z" fill="#1557B7"/>
<path d="M200.04 77.8453L116.306 159.48L138.166 180.793L145.964 173.189L221.9 99.1571L200.04 77.8453Z" fill="#1557B7" fill-opacity="0.88"/>
<path d="M76.7959 198L138.166 180.793L94.4457 138.168L76.7959 198Z" fill="#1557B7" fill-opacity="0.69"/>
<path d="M178.18 56.533L200.04 77.8453L233.017 45.6943L254.877 67.0062L211.158 24.382L178.18 56.533Z" fill="#1557B7" fill-opacity="0.88"/>
<path d="M200.041 77.8472L221.9 99.1592L254.878 67.0084L233.018 45.6965L200.041 77.8472Z" fill="#1557B7"/>
<path d="M78.164 63.9229H93.6111C93.6111 50.4573 84.193 39.1001 71.4429 35.7719V29.4572H55.9958V35.7719C43.2458 39.1001 33.8271 50.4568 33.8271 63.9229C33.8271 77.6987 41.2423 87.569 54.708 91.716L55.9958 92.1126V121.157C51.96 118.657 49.2743 114.263 49.2743 109.266H33.8271C33.8271 122.731 43.2458 134.089 55.9958 137.417V143.732H71.4429V137.417C84.193 134.089 93.6111 122.732 93.6111 109.266C93.6111 95.49 86.196 85.6198 72.7302 81.4728L71.4429 81.0762V52.0316C75.4787 54.532 78.164 58.926 78.164 63.9229ZM55.9958 76.019C51.3261 73.6556 49.2743 69.8831 49.2743 63.9229C49.2743 58.926 51.96 54.5315 55.9958 52.0316V76.019ZM78.164 109.266C78.164 114.263 75.4787 118.658 71.4429 121.158V109.164V97.1702C76.1126 99.5336 78.164 103.306 78.164 109.266Z" fill="#19733E"/>
</svg>
